<svg id="eA8YlUqEcga1" xmlns="http://www.w3.org/2000/svg" xmlns:xlink="http://www.w3.org/1999/xlink" viewBox="0 0 328 367" shape-rendering="geometricPrecision" text-rendering="geometricPrecision">
<style><![CDATA[
#eA8YlUqEcga31_to {animation: eA8YlUqEcga31_to__to 3000ms linear infinite normal forwards}@keyframes eA8YlUqEcga31_to__to { 0% {offset-distance: 0%} 26.666667% {offset-distance: 57.42382%} 43.333333% {offset-distance: 81.786014%} 60% {offset-distance: 100%} 100% {offset-distance: 100%}} #eA8YlUqEcga33_to {animation: eA8YlUqEcga33_to__to 3000ms linear infinite normal forwards}@keyframes eA8YlUqEcga33_to__to { 0% {offset-distance: 0%} 16.666667% {offset-distance: 0%} 46.666667% {offset-distance: 51.074064%} 56.666667% {offset-distance: 62.840567%} 66.333333% {offset-distance: 74.34192%} 80% {offset-distance: 91.296855%} 100% {offset-distance: 100%}} #eA8YlUqEcga35_to {animation: eA8YlUqEcga35_to__to 3000ms linear infinite normal forwards}@keyframes eA8YlUqEcga35_to__to { 0% {offset-distance: 0%} 5% {offset-distance: 4.949545%} 15.333333% {offset-distance: 15.451828%} 41.666667% {offset-distance: 41.651293%} 48.666667% {offset-distance: 48.750477%} 60% {offset-distance: 59.877176%} 83.666667% {offset-distance: 83.798487%} 92% {offset-distance: 91.853486%} 100% {offset-distance: 100%}} #eA8YlUqEcga37_to {animation: eA8YlUqEcga37_to__to 3000ms linear infinite normal forwards}@keyframes eA8YlUqEcga37_to__to { 0% {offset-distance: 0%} 4.333333% {offset-distance: 4.462444%} 12% {offset-distance: 11.914022%} 18% {offset-distance: 17.977656%} 28.333333% {offset-distance: 28.408368%} 29.666667% {offset-distance: 29.521399%} 35.666667% {offset-distance: 35.766%} 55.666667% {offset-distance: 55.689081%} 69.666667% {offset-distance: 69.548877%} 87% {offset-distance: 86.873448%} 93.666667% {offset-distance: 93.638771%} 100% {offset-distance: 100%}} #eA8YlUqEcga39_to {animation: eA8YlUqEcga39_to__to 3000ms linear infinite normal forwards}@keyframes eA8YlUqEcga39_to__to { 0% {offset-distance: 0%} 23.333333% {offset-distance: 49.280645%} 43.333333% {offset-distance: 60.633302%} 100% {offset-distance: 100%}} #eA8YlUqEcga41_to {animation: eA8YlUqEcga41_to__to 3000ms linear infinite normal forwards}@keyframes eA8YlUqEcga41_to__to { 0% {offset-distance: 0%} 6.333333% {offset-distance: 6.23712%} 16.333333% {offset-distance: 16.187164%} 43% {offset-distance: 43.156855%} 57.333333% {offset-distance: 57.228252%} 84.333333% {offset-distance: 84.197943%} 95% {offset-distance: 95.120852%} 100% {offset-distance: 100%}} #eA8YlUqEcga43_to {animation: eA8YlUqEcga43_to__to 3000ms linear infinite normal forwards}@keyframes eA8YlUqEcga43_to__to { 0% {offset-distance: 0%} 57.333333% {offset-distance: 57.185778%} 79.666667% {offset-distance: 79.551509%} 100% {offset-distance: 100%}}
]]></style>
<defs><filter id="eA8YlUqEcga31-filter" x="-150%" width="400%" y="-150%" height="400%"><feGaussianBlur id="eA8YlUqEcga31-filter-blur-0" stdDeviation="4.5,4.5" result="result"/></filter><filter id="eA8YlUqEcga33-filter" x="-150%" width="400%" y="-150%" height="400%"><feGaussianBlur id="eA8YlUqEcga33-filter-blur-0" stdDeviation="4.5,4.5" result="result"/></filter><filter id="eA8YlUqEcga35-filter" x="-150%" width="400%" y="-150%" height="400%"><feGaussianBlur id="eA8YlUqEcga35-filter-blur-0" stdDeviation="4.5,4.5" result="result"/></filter><filter id="eA8YlUqEcga37-filter" x="-150%" width="400%" y="-150%" height="400%"><feGaussianBlur id="eA8YlUqEcga37-filter-blur-0" stdDeviation="4.5,4.5" result="result"/></filter><filter id="eA8YlUqEcga39-filter" x="-150%" width="400%" y="-150%" height="400%"><feGaussianBlur id="eA8YlUqEcga39-filter-blur-0" stdDeviation="4.5,4.5" result="result"/></filter><filter id="eA8YlUqEcga41-filter" x="-150%" width="400%" y="-150%" height="400%"><feGaussianBlur id="eA8YlUqEcga41-filter-blur-0" stdDeviation="4.5,4.5" result="result"/></filter><filter id="eA8YlUqEcga43-filter" x="-150%" width="400%" y="-150%" height="400%"><feGaussianBlur id="eA8YlUqEcga43-filter-blur-0" stdDeviation="4.5,4.5" result="result"/></filter></defs><rect width="229.226" height="10.4194" rx="0" ry="0" transform="translate(55.0967 356.258)" fill="#30A2A1"/><rect width="10.4194" height="104.194" rx="0" ry="0" transform="translate(211.387 252.064)" fill="#30A2A1"/><rect width="10.4194" height="41.6774" rx="0" ry="0" transform="matrix(0-1 1 0 242.646 231.226)" fill="#30A2A1"/><path d="M242.645,220.807l5.21,10.419-26.048,26.048-10.42-5.209l31.258-31.258Z" fill="#30A2A1"/><rect width="10.4194" height="114.613" rx="0" ry="0" transform="translate(190.549 241.646)" fill="#30A2A1"/><rect width="10.4194" height="31.2581" rx="0" ry="0" transform="translate(221.807 179.129)" fill="#30A2A1"/><rect width="10.4194" height="41.6774" rx="0" ry="0" transform="translate(169.71 127.032)" fill="#30A2A1"/><rect width="31.2581" height="10.4194" rx="0" ry="0" transform="translate(211.387 95.7739)" fill="#30A2A1"/><path d="M221.807,205.177l10.419,5.21-31.258,36.468-10.419-5.21l31.258-36.468Z" fill="#30A2A1"/><path d="M169.71,168.71l10.419-5.21l41.678,46.887-5.21,10.419L169.71,168.71Z" fill="#30A2A1"/><path d="M169.71,127.032l41.677-31.2581l5.21,10.4191-36.468,26.049-10.419-5.21Z" fill="#30A2A1"/><rect width="10.4194" height="156.29" rx="0" ry="0" transform="translate(159.29 199.968)" fill="#30A2A1"/><rect width="10.4194" height="135.452" rx="0" ry="0" transform="translate(138.451 43.6772)" fill="#30A2A1"/><rect width="31.2581" height="10.4194" rx="0" ry="0" transform="translate(75.9355 95.7739)" fill="#30A2A1"/><rect width="10.4194" height="31.2581" rx="0" ry="0" transform="translate(96.7739 179.129)" fill="#30A2A1"/><rect width="41.6774" height="10.4194" rx="0" ry="0" transform="translate(44.6772 220.807)" fill="#30A2A1"/><rect width="10.4194" height="114.613" rx="0" ry="0" transform="translate(128.032 241.646)" fill="#30A2A1"/><rect width="10.4194" height="104.194" rx="0" ry="0" transform="translate(107.193 252.064)" fill="#30A2A1"/><path d="M138.451,179.129l10.42-5.21l20.838,26.049-10.419,5.209-20.839-26.048Z" fill="#30A2A1"/><path d="M107.194,95.7739l31.258,31.2581v15.629l-36.468-36.468l5.21-10.4191Z" fill="#30A2A1"/><path d="M96.7739,210.387l10.4191-5.21l31.258,36.468-10.419,5.21-31.2581-36.468Z" fill="#30A2A1"/><path d="M81.1455,231.226l5.2097-10.419l31.2578,31.258-10.419,5.209-26.0485-26.048Z" fill="#30A2A1"/><circle r="22.0484" transform="translate(143.661 26.0484)" fill="none" stroke="#30A2A1" stroke-width="8"/><circle r="22.0484" transform="translate(260.274 100.984)" fill="none" stroke="#30A2A1" stroke-width="8"/><circle r="22.0484" transform="translate(227.016 160.5)" fill="none" stroke="#30A2A1" stroke-width="8"/><circle r="22.0484" transform="translate(301.952 226.016)" fill="none" stroke="#30A2A1" stroke-width="8"/><circle r="22.0484" transform="translate(26.0484 226.016)" fill="none" stroke="#30A2A1" stroke-width="8"/><circle r="22.0484" transform="translate(58.3062 100.984)" fill="none" stroke="#30A2A1" stroke-width="8"/><circle r="22.0484" transform="translate(101.984 161.5)" fill="none" stroke="#30A2A1" stroke-width="8"/><g id="eA8YlUqEcga31_to" style="offset-path:path('M112.4027,361.4677L112.4027,257.274L81.1455,226.0167L48.0968,226.016');offset-rotate:0deg;"><g transform="translate(-112.5,-347.5)" filter="url(#eA8YlUqEcga31-filter)"><rect width="15" height="19" rx="0" ry="0" transform="translate(105 338)" fill="#c8cb36"/></g></g><g id="eA8YlUqEcga33_to" style="offset-path:path('M164,361.4677L164,203.9676L143.6607,173.919L143.6607,138.4516L107.193,100.984L80.3546,100.984');offset-rotate:0deg"><g transform="translate(-164.5,-346.5)" filter="url(#eA8YlUqEcga33-filter)"><rect width="15" height="19" rx="0" ry="0" transform="translate(157 337)" fill="#c8cb36"/></g></g><g id="eA8YlUqEcga35_to" style="offset-path:path('M101.387814,182.5484L101.984001,205.177L133.241701,241.646L133.2417,361.4677L165.7094,361.4677L216.5967,361.4677L216.5967,252.065L242.646,226.016L279.9036,226.016');offset-rotate:0deg"><g transform="rotate(180.979044) translate(-164.5,-346.5)" filter="url(#eA8YlUqEcga35-filter)"><rect width="15" height="19" rx="0" ry="0" transform="translate(157 337)" fill="#c8cb36"/></g></g><g id="eA8YlUqEcga37_to" style="offset-path:path('M238.2256,100.9836L211.3875,100.9836L174.9197,127.032L174.9197,163.5L216.5967,210.3871L221.8064,214.590527L195.7587,241.646L195.7585,361.4677L112.4027,361.4677L112.4027,257.274L86.3546,226.0167L48.0968,226.016');offset-rotate:0deg"><g transform="rotate(91.24676) translate(-164.5,-346.5)" filter="url(#eA8YlUqEcga37-filter)"><rect width="15" height="19" rx="0" ry="0" transform="translate(157 337)" fill="#c8cb36"/></g></g><g id="eA8YlUqEcga39_to" style="offset-path:path('M164.4997,361.4677Q164,361.4677,164,203.9676L143.661,173.919L143.661,48.0968');offset-rotate:0deg"><g transform="translate(-164.5,-346.5)" filter="url(#eA8YlUqEcga39-filter)"><rect width="15" height="19" rx="0" ry="0" transform="translate(157 337)" fill="#c8cb36"/></g></g><g id="eA8YlUqEcga41_to" style="offset-path:path('M227.016,182.67655L227.0167,210.387L195.7585,241.646L195.7585,361.4677L133.2417,361.4677L133.2417,241.646L101.22549,205.177Q101.22549,183.4516,101.22549,183.5');offset-rotate:0deg"><g transform="translate(-164.5,-346.5)" filter="url(#eA8YlUqEcga41-filter)"><rect width="15" height="19" rx="0" ry="0" transform="translate(157 337)" fill="#c8cb36"/></g></g><g id="eA8YlUqEcga43_to" style="offset-path:path('M216.597,361.4677L216.5,257.274L242.646,226.0167L279.9036,226.0163');offset-rotate:0deg"><g transform="translate(-216.5,-347.5)" filter="url(#eA8YlUqEcga43-filter)"><rect width="15" height="19" rx="0" ry="0" transform="translate(209 338)" fill="#c8cb36"/></g></g></svg>
